/* XPM */
static char * wall_sbb_xpm[] = {
"64 64 326 2",
"  	c #6D300A",
". 	c #6B2C08",
"+ 	c #DAB746",
"@ 	c #DAB846",
"# 	c #DFBB47",
"$ 	c #FFD052",
"% 	c #FFCF52",
"& 	c #85551C",
"* 	c #C39F3B",
"= 	c #FFD053",
"- 	c #CC9F3D",
"; 	c #916623",
"> 	c #FECE52",
", 	c #F8C94F",
"' 	c #6C2F0A",
") 	c #6C2E09",
"! 	c #DBB946",
"~ 	c #F0C54D",
"{ 	c #FFD051",
"] 	c #6C2D09",
"^ 	c #B6A13A",
"/ 	c #B6A23A",
"( 	c #B8A33B",
"_ 	c #FCCD51",
": 	c #C36C1E",
"< 	c #A58C31",
"[ 	c #B3A039",
"} 	c #EFC54D",
"| 	c #E5A63E",
"1 	c #6B2F0A",
"2 	c #835C1D",
"3 	c #B4A139",
"4 	c #DDB947",
"5 	c #FBCA4F",
"6 	c #7A360B",
"7 	c #6D2F09",
"8 	c #B7A33A",
"9 	c #B5A13A",
"0 	c #C9AD40",
"a 	c #FFD151",
"b 	c #DEBA47",
"c 	c #C26C1E",
"d 	c #CBAE41",
"e 	c #BAA43B",
"f 	c #F8C84E",
"g 	c #F2C64B",
"h 	c #BDA63C",
"i 	c #E6A73E",
"j 	c #F5C64D",
"k 	c #DFBB45",
"l 	c #C26C1F",
"m 	c #6C300A",
"n 	c #E6A83E",
"o 	c #682E0A",
"p 	c #F6C64E",
"q 	c #78350B",
"r 	c #E0BB45",
"s 	c #D99334",
"t 	c #B58832",
"u 	c #A1872F",
"v 	c #A0872F",
"w 	c #D39133",
"x 	c #BF8B33",
"y 	c #A78730",
"z 	c #BC8C31",
"A 	c #D09033",
"B 	c #B08732",
"C 	c #A4872F",
"D 	c #B48732",
"E 	c #A1862B",
"F 	c #EAC14B",
"G 	c #F1C64D",
"H 	c #6E340C",
"I 	c #E1B947",
"J 	c #EAC24B",
"K 	c #A97C2E",
"L 	c #B68D34",
"M 	c #E7B948",
"N 	c #7B4815",
"O 	c #FBCC51",
"P 	c #682806",
"Q 	c #6E2C00",
"R 	c #C6AB3F",
"S 	c #B05410",
"T 	c #B09B37",
"U 	c #D48A2F",
"V 	c #957728",
"W 	c #F2BC49",
"X 	c #6F310A",
"Y 	c #744111",
"Z 	c #B5A23A",
"` 	c #8B3B09",
" .	c #F2C74E",
"..	c #E0BB48",
"+.	c #FBCD51",
"@.	c #CCB042",
"#.	c #D48B2F",
"$.	c #F2BC48",
"%.	c #EEC44C",
"&.	c #CDB042",
"*.	c #D58B2F",
"=.	c #6E310A",
"-.	c #8A3B09",
";.	c #6E2D00",
">.	c #AC9635",
",.	c #AD9735",
"'.	c #C97825",
").	c #C87725",
"!.	c #996623",
"~.	c #AA9234",
"{.	c #C3822B",
"].	c #B16E24",
"^.	c #A07F2C",
"/.	c #B69133",
"(.	c #C57625",
"_.	c #956924",
":.	c #AD9635",
"<.	c #AE9836",
"[.	c #C97725",
"}.	c #94631D",
"|.	c #6A2B08",
"1.	c #F5C84F",
"2.	c #F6C94F",
"3.	c #F7CA4F",
"4.	c #86551C",
"5.	c #D9AE43",
"6.	c #9C6F27",
"7.	c #F7CA50",
"8.	c #B7A23A",
"9.	c #C1A93E",
"0.	c #FECF52",
"a.	c #BF6B1E",
"b.	c #B9A43B",
"c.	c #E3A63E",
"d.	c #F4C84E",
"e.	c #79360B",
"f.	c #DCB946",
"g.	c #E4A63E",
"h.	c #FAC94F",
"i.	c #FFCF50",
"j.	c #B85F17",
"k.	c #B95F17",
"l.	c #784113",
"m.	c #B39E39",
"n.	c #B49F39",
"o.	c #B5A039",
"p.	c #C06C1D",
"q.	c #8D4B14",
"r.	c #B39F39",
"s.	c #C18C2F",
"t.	c #B85E17",
"u.	c #AB5816",
"v.	c #896320",
"w.	c #BFA23B",
"x.	c #774113",
"y.	c #B4A039",
"z.	c #BBA338",
"A.	c #FDCE51",
"B.	c #6F330C",
"C.	c #6D2F0A",
"D.	c #F3C54D",
"E.	c #AA7C2E",
"F.	c #C29639",
"G.	c #E8B948",
"H.	c #7E4A17",
"I.	c #692706",
"J.	c #BBA53C",
"K.	c #D7B645",
"L.	c #A74F10",
"M.	c #CD882F",
"N.	c #C5AB3F",
"O.	c #F0BB49",
"P.	c #C2A93E",
"Q.	c #863808",
"R.	c #D38A2F",
"S.	c #CCAF41",
"T.	c #EDC44C",
"U.	c #BEA83D",
"V.	c #B8560F",
"W.	c #A84C0C",
"X.	c #712E08",
"Y.	c #B19B37",
"Z.	c #C37B26",
"`.	c #A74C0C",
" +	c #8D3E0A",
".+	c #947628",
"++	c #B6A33A",
"@+	c #CDA33B",
"#+	c #A44A0C",
"$+	c #723D10",
"%+	c #CAAF41",
"&+	c #AE4D0A",
"*+	c #A94C0C",
"=+	c #692500",
"-+	c #6B2B08",
";+	c #682505",
">+	c #FFD153",
",+	c #86531B",
"'+	c #E2B446",
")+	c #CDA03D",
"!+	c #A07229",
"~+	c #FACA50",
"{+	c #6A2807",
"]+	c #FFD253",
"^+	c #FFD251",
"/+	c #AF641D",
"(+	c #A48C31",
"_+	c #D5B444",
":+	c #DCA33D",
"<+	c #825C1D",
"[+	c #D3B343",
"}+	c #75340A",
"|+	c #C7AC3F",
"1+	c #ECC34C",
"2+	c #BCA63C",
"3+	c #BCA53C",
"4+	c #F5C54D",
"5+	c #DFBA45",
"6+	c #964008",
"7+	c #974008",
"8+	c #661F03",
"9+	c #B7A33B",
"0+	c #BBA63C",
"a+	c #BE6519",
"b+	c #762D05",
"c+	c #A58D31",
"d+	c #D39936",
"e+	c #953F08",
"f+	c #8C3A07",
"g+	c #80591B",
"h+	c #DCB645",
"i+	c #9B4208",
"j+	c #662104",
"k+	c #B8A43B",
"l+	c #CFB140",
"m+	c #6B2A07",
"n+	c #F7C84F",
"o+	c #AA7C2D",
"p+	c #C4973A",
"q+	c #E9BA49",
"r+	c #7E4916",
"s+	c #672004",
"t+	c #6C2600",
"u+	c #8E430E",
"v+	c #AF9A37",
"w+	c #E6BF4A",
"x+	c #BC822E",
"y+	c #B3A139",
"z+	c #E5BE49",
"A+	c #ECBA48",
"B+	c #6E300A",
"C+	c #DBB846",
"D+	c #FACB50",
"E+	c #783107",
"F+	c #B4A13A",
"G+	c #C8AD40",
"H+	c #B2530F",
"I+	c #853A09",
"J+	c #6D2C08",
"K+	c #CE852C",
"L+	c #843909",
"M+	c #793308",
"N+	c #E5B344",
"O+	c #863A09",
"P+	c #833909",
"Q+	c #723E10",
"R+	c #E2BD48",
"S+	c #984008",
"T+	c #6B2600",
"U+	c #6E330B",
"V+	c #6B2E09",
"W+	c #FECE51",
"X+	c #87561C",
"Y+	c #E1B346",
"Z+	c #A07329",
"`+	c #FFCE52",
" @	c #6E320B",
".@	c #BFA73D",
"+@	c #955A1C",
"@@	c #A68D31",
"#@	c #F3C84E",
"$@	c #D1A03D",
"%@	c #F9C94F",
"&@	c #70310A",
"*@	c #6C2F09",
"=@	c #F9CB50",
"-@	c #FACC50",
";@	c #C0A83D",
">@	c #E1BB45",
",@	c #77350B",
"'@	c #C16B1E",
")@	c #E2A43D",
"!@	c #75340B",
"~@	c #74340A",
"{@	c #F0C24C",
"]@	c #823A0B",
"^@	c #DCB944",
"/@	c #FAC84E",
"(@	c #F7C74F",
"_@	c #784815",
":@	c #764613",
"<@	c #F0BF4B",
"[@	c #F7C74E",
"}@	c #A97E2E",
"|@	c #C29538",
"1@	c #F9C74E",
"2@	c #E0B346",
"3@	c #85571C",
"4@	c #F6C74E",
"5@	c #734111",
"6@	c #774408",
"7@	c #D4B444",
"8@	c #75370C",
"9@	c #B9A03A",
"0@	c #C1A83D",
"a@	c #AD7D2E",
"b@	c #9B7B2A",
"c@	c #754212",
"d@	c #6B2A06",
"e@	c #BEA73D",
"f@	c #D5B544",
"g@	c #BFA83D",
"h@	c #F0C64D",
"i@	c #CCB041",
"j@	c #F1BB48",
"k@	c #8B3C09",
"            . + @ @ @ @ # $ % &               * @ @ @ @ + = % -               ; @ @ @ @ @ > % , '             ) ! @ @ @ @ ~ % { ",
"            ] ^ / / / / / ( _ :               < / / / / / [ } | 1             2 / / / / / 3 4 5 6             7 8 / / / / 9 0 a ",
"            ] ^ / / / / / / b c               < / / / / / / d | 1             2 / / / / / / e f 6             7 8 / / / / / 9 g ",
"            ] ^ / / / / / / h c               < / / / / / / 3 i 1             2 / / / / / / / j 6             7 8 / / / / / / k ",
"            ] ^ / / / / / / h c               < / / / / / / 3 i 1             2 / / / / / / / j 6             7 8 / / / / / / k ",
"            ] ^ / / / / / / h c               < / / / / / / 3 i 1             2 / / / / / / / j 6             7 8 / / / / / / k ",
"1 1 1 1 1 1 ] ^ / / / / / / h l 1 1 1 1 1 1 m < / / / / / / 3 n o 1 1 1 1 1 1 2 / / / / / / / p q 1 1 1 1 1 1 7 8 / / / / / / r ",
"s s s s s s t u u u u u u u v w s s s s s s x y u u u u u u u z s s s s s s A B u u u u u u u C s s s s s s s D v u u u u u u E ",
"F F F F G % $ H               I F F F F J $ % K               L F F F F F $ % M               N J F F F F O % % P             Q ",
"/ / / / / R $ S               T / / / / / / O U 1             V / / / / / 3 G W X             Y / / / / / Z # $ `             Q ",
"/ / / / / Z  .S               T / / / / / / ..U 1             V / / / / / / R W X             Y / / / / / / / +.`             Q ",
"/ / / / / / @.S               T / / / / / / / #.1             V / / / / / / 9 $.X             Y / / / / / / / %.`             Q ",
"/ / / / / / @.S               T / / / / / / / #.1             V / / / / / / 9 $.X             Y / / / / / / / %.`             Q ",
"/ / / / / / @.S               T / / / / / / / #.1             V / / / / / / 9 $.X             Y / / / / / / / %.`             Q ",
"/ / / / / / &.S m m m m m m   T / / / / / / / *.1 m m m m m   V / / / / / / 9 W =.m m m m m m Y / / / / / / / %.-.m m m m m m ;.",
">.>.>.>.>.>.,.'.).).).).).).!.~.>.>.>.>.>.>.>.{.).).).).).).].^.>.>.>.>.>.>.>./.).).).).).).(._.:.>.>.>.>.>.>.<.[.).).).).).'.}.",
"            |.1.2.2.2.2.3.% % 4.              5.2.2.2.2.2.% % -               6.2.2.2.2.2.% % ,               ) 7.2.2.2.2.O % { ",
"            ] ^ / / / / 8.9.0.a.              < / / / / / b._ c.1             2 / / / / / e d.5 e.            7 8 / / / / ( f.{ ",
"            ] ^ / / / / / / d.c               < / / / / / / @ g.1             2 / / / / / / h h.6             7 8 / / / / / 3 i.",
"            ] ^ / / / / / / h c               < / / / / / / 3 i 1             2 / / / / / / / j 6             7 8 / / / / / / k ",
"            ] ^ / / / / / / h c               < / / / / / / 3 i 1             2 / / / / / / / j 6             7 8 / / / / / / k ",
"            ] ^ / / / / / / h c               < / / / / / / 3 i 1             2 / / / / / / / j 6             7 8 / / / / / / k ",
"            ] ^ / / / / / / h c               < / / / / / / 3 i 1             2 / / / / / / / j 6             7 8 / / / / / / k ",
"j.j.j.j.j.k.l.m.n.n.n.n.n.n.o.p.j.j.j.j.j.j.q.< n.n.n.n.n.n.r.s.t.j.j.j.j.j.u.v.n.n.n.n.n.n.n.w.k.j.j.j.j.j.j.x.y.n.n.n.n.n.n.z.",
"A.A.A.A.> % $ B.C.C.C.C.C.C.C.D.A.A.A.A.A.% % E.C.C.C.C.C.C.C.F.A.A.A.A.A.% % G.C.C.C.C.C.C.C.H.A.A.A.A.A.% % $ I.C.C.C.C.C.C.Q ",
"/ / / / J.K.$ L.              T / / / / / R % M.'             V / / / / Z N.> O.=.            Y / / / / / P.G % Q.            Q ",
"/ / / / / 9 % S               T / / / / / / %.R.1             V / / / / / / S.W X             Y / / / / / / / $ `             Q ",
"/ / / / / / S.S               T / / / / / / Z #.1             V / / / / / / 9 $.X             Y / / / / / / / T.`             Q ",
"/ / / / / / @.S               T / / / / / / / #.1             V / / / / / / 9 $.X             Y / / / / / / / %.`             Q ",
"/ / / / / / @.S               T / / / / / / / #.1             V / / / / / / 9 $.X             Y / / / / / / / %.`             Q ",
"/ / / / / / @.S               T / / / / / / / #.1             V / / / / / / 9 $.X             Y / / / / / / / %.`             Q ",
"8 8 8 8 8 8 U.V.W.W.W.W.W.W.X.Y.8 8 8 8 8 8 8 Z.`.W.W.W.W.W. +.+8 8 8 8 8 8 ++@+W.W.W.W.W.W.#+$+8 8 8 8 8 8 8 %+&+W.W.W.W.W.*+=+",
"-+-+-+-+-+-+;+= >+>+>+>+>+= = ,+-+-+-+-+-+-+-+'+>+>+>+>+>+= = )+-+-+-+-+-+-+-+!+>+>+>+>+>+= = ~+-+-+-+-+-+-+-+{+]+>+>+>+>+= = ^+",
"            ] 3 3 3 3 3 ( + % /+              (+3 3 3 3 3 _+$ :+'             <+3 3 3 3 3 [+A.h.}+            7 Z 3 3 3 3 |+1+{ ",
"            ] ^ / / / / / / O c               < / / / / / / b g.1             2 / / / / / / 2+5 6             7 8 / / / / / [ a ",
"            ] ^ / / / / / / 3+c               < / / / / / / [ i 1             2 / / / / / / / 4+6             7 8 / / / / / / 5+",
"            ] ^ / / / / / / h c               < / / / / / / 3 i 1             2 / / / / / / / j 6             7 8 / / / / / / k ",
"            ] ^ / / / / / / h c               < / / / / / / 3 i 1             2 / / / / / / / j 6             7 8 / / / / / / k ",
"            ] ^ / / / / / / h c               < / / / / / / 3 i 1             2 / / / / / / / j 6             7 8 / / / / / / k ",
"6+6+6+6+6+7+8+8 9+9+9+9+9+9+0+a+6+6+6+6+6+6+b+c+9+9+9+9+9+9+++d+e+6+6+6+6+6+f+g+9+9+9+9+9+9+9+h+i+6+6+6+6+6+6+j+k+9+9+9+9+9+9+l+",
">+>+>+>+>+>+]+C.m+m+m+m+m+m+m+n+>+>+>+>+>+= >+o+m+m+m+m+m+m+m+p+>+>+>+>+>+>+>+q+m+m+m+m+m+m+m+r+>+>+>+>+>+>+>+>+s+m+m+m+m+m+m+t+",
"3 3 3 3 N.T.$ u+              v+3 3 3 3 9 w+% x+m             .+3 3 3 3 y+z+$ A+B+            Y 3 3 3 3 3 C+D+% E+            Q ",
"/ / / / / F+= S               T / / / / / / } R.1             V / / / / / / S.W X             Y / / / / / / 9 = `             Q ",
"/ / / / / / S.S               T / / / / / / 9 #.1             V / / / / / / 9 $.X             Y / / / / / / / T.`             Q ",
"/ / / / / / @.S               T / / / / / / / #.1             V / / / / / / 9 $.X             Y / / / / / / / %.`             Q ",
"/ / / / / / @.S               T / / / / / / / #.1             V / / / / / / 9 $.X             Y / / / / / / / %.`             Q ",
"/ / / / / / @.S               T / / / / / / / #.1             V / / / / / / 9 $.X             Y / / / / / / / %.`             Q ",
"8 8 8 8 8 8 G+H+I+I+I+I+I+I+J+Y.8 8 8 8 8 8 ++K+L+I+I+I+I+I+M+.+8 8 8 8 8 8 / N+O+I+I+I+I+I+P+Q+8 8 8 8 8 8 8 R+S+I+I+I+I+I+O+T+",
"U+U+U+U+U+U+V+W+% % % % % > > X+U+U+U+U+U+U+U+Y+% % % % % > > - U+U+U+U+U+U+U+Z+% % % % % `+> n+ @U+U+U+U+U+U+  $ % % % % `+`+i.",
"            ] 8.8 8 8 8 .@d.% +@              @@8 8 8 8 / #@% $@              2 8 8 8 8 8 } 0.%@&@            *@k+8 8 8 8 + =@{ ",
"            ] ^ / / / / / / -@c               < / / / / / / # g.1             2 / / / / / / .@5 6             7 8 / / / / / Z a ",
"            ] ^ / / / / / / ;@c               < / / / / / / / i 1             2 / / / / / / / j 6             7 8 / / / / / / >@",
"            ] ^ / / / / / / h c               < / / / / / / 3 i 1             2 / / / / / / / j 6             7 8 / / / / / / k ",
"            ] ^ / / / / / / h c               < / / / / / / 3 i 1             2 / / / / / / / j 6             7 8 / / / / / / k ",
"            ] ^ / / / / / / h c               < / / / / / / 3 i 1             2 / / / / / / / j 6             7 8 / / / / / / k ",
",@,@,@,@,@,@] ^ / / / / / / h '@,@,@,@,@,@,@&@< / / / / / / 3 )@!@,@,@,@,@,@~@2 / / / / / / / {@]@,@,@,@,@,@,@*@8 / / / / / / ^@",
"/@/@/@/@/@/@(@_@:@:@:@:@:@:@:@<@/@/@/@/@/@/@[@}@:@:@:@:@:@:@:@|@/@/@/@/@/@/@1@2@:@:@:@:@:@:@:@3@/@/@/@/@/@/@/@4@5@:@:@:@:@:@:@6@",
";@;@;@;@7@_ $ 8@              9@;@;@;@;@0@_ % a@              b@;@;@;@;@.@_ % G.              c@;@;@;@;@;@} > % d@            Q ",
"/ / / / / ( $ S               T / / / / / / G U 1             V / / / / / / 7@W X             Y / / / / / / e@$ `             Q ",
"/ / / / / / f@S               T / / / / / / g@#.1             V / / / / / / b.$.X             Y / / / / / / / h@`             Q ",
"/ / / / / / @.S               T / / / / / / / #.1             V / / / / / / 9 $.X             Y / / / / / / / %.`             Q ",
"/ / / / / / @.S               T / / / / / / / #.1             V / / / / / / 9 $.X             Y / / / / / / / %.`             Q ",
"/ / / / / / @.S               T / / / / / / / #.1             V / / / / / / 9 $.X             Y / / / / / / / %.`             Q ",
"/ / / / / / i@S B+B+B+B+B+B+  T / / / / / / / #.m B+B+B+B+B+  V / / / / / / 9 j@X B+B+B+B+B+B+Y / / / / / / / T.k@B+B+B+B+B+B+Q "};
